# xmcd CD database file
#
# Track frame offsets:
#	150
#	48551
#	80150
#	102120
#	134492
#	154488
#	176647
#	210959
#
# Disc length: 3145 seconds
#
# Revision: 0
# Processed by: cddbd v1.5.2PL0 Copyright (c) Steve Scherf et al.
# Submitted via: CDex 1.70beta2
#
DISCID=6d0c4708
DTITLE=Philipp van Endert - Cartouche
DYEAR=2018
DGENRE=Jazz
TTITLE0=Cartouche
TTITLE1=K and the Waves
TTITLE2=Salvia e Rosmarino
TTITLE3=With a Pirate Smile
TTITLE4=Wait a Second
TTITLE5=Fantasy Return Date
TTITLE6=Road to Peka
TTITLE7=Peace
EXTD=YEAR: 2018
EXTT0=
EXTT1=
EXTT2=
EXTT3=
EXTT4=
EXTT5=
EXTT6=
EXTT7=
PLAYORDER=
